<?xml version="1.0" encoding="UTF-8"?>
<svg version="1.1" xmlns="http://www.w3.org/2000/svg" width="128" height="128">
<path d="M0 0 C1.57218667 -0.00270213 3.14437171 -0.0065905 4.71655273 -0.01159668 C7.99446695 -0.01745796 11.27194198 -0.00903897 14.54980469 0.00976562 C18.72225416 0.03255367 22.89367399 0.01941225 27.06608582 -0.00452423 C30.30749068 -0.01907434 33.54865699 -0.01433444 36.79006958 -0.00401306 C38.32724128 -0.00137111 39.86443563 -0.00452489 41.40158081 -0.01393127 C51.90630248 -0.06412848 62.23871907 0.31917311 70.5 7.59375 C78.32162692 16.47628135 78.16224184 27.77614804 78.09375 38.96875 C78.09645213 40.54093667 78.1003405 42.11312171 78.10534668 43.68530273 C78.11120796 46.96321695 78.10278897 50.24069198 78.08398438 53.51855469 C78.06119633 57.69100416 78.07433775 61.86242399 78.09827423 66.03483582 C78.11282434 69.27624068 78.10808444 72.51740699 78.09776306 75.75881958 C78.09512111 77.29599128 78.09827489 78.83318563 78.10768127 80.37033081 C78.15787848 90.87505248 77.77457689 101.20746907 70.5 109.46875 C61.61746865 117.29037692 50.31760196 117.13099184 39.125 117.0625 C37.55281333 117.06520213 35.98062829 117.0690905 34.40844727 117.07409668 C31.13053305 117.07995796 27.85305802 117.07153897 24.57519531 117.05273438 C20.40274584 117.02994633 16.23132601 117.04308775 12.05891418 117.06702423 C8.81750932 117.08157434 5.57634301 117.07683444 2.33493042 117.06651306 C0.79775872 117.06387111 -0.73943563 117.06702489 -2.27658081 117.07643127 C-12.78130248 117.12662848 -23.11371907 116.74332689 -31.375 109.46875 C-39.19662692 100.58621865 -39.03724184 89.28635196 -38.96875 78.09375 C-38.97145213 76.52156333 -38.9753405 74.94937829 -38.98034668 73.37719727 C-38.98620796 70.09928305 -38.97778897 66.82180802 -38.95898438 63.54394531 C-38.93619633 59.37149584 -38.94933775 55.20007601 -38.97327423 51.02766418 C-38.98782434 47.78625932 -38.98308444 44.54509301 -38.97276306 41.30368042 C-38.97012111 39.76650872 -38.97327489 38.22931437 -38.98268127 36.69216919 C-39.03287848 26.18744752 -38.64957689 15.85503093 -31.375 7.59375 C-22.49246865 -0.22787692 -11.19260196 -0.06849184 0 0 Z " fill="#26DE81" transform="translate(44.4375,5.46875)"/>
<path d="M0 0 C3 0.25 3 0.25 5 2.25 C5.24581843 5.11436824 5.37369381 7.8890314 5.4140625 10.7578125 C5.43342865 11.59843231 5.4527948 12.43905212 5.4727478 13.30514526 C5.53261658 15.99499303 5.57895771 18.68488343 5.625 21.375 C5.6631731 23.19663344 5.70222444 25.0182487 5.7421875 26.83984375 C5.83832398 31.30974852 5.92232769 35.77973779 6 40.25 C6.81984375 39.49074219 7.6396875 38.73148438 8.484375 37.94921875 C9.57282716 36.94521546 10.66137382 35.9413146 11.75 34.9375 C12.28882813 34.43798828 12.82765625 33.93847656 13.3828125 33.42382812 C19.41733492 27.86765199 19.41733492 27.86765199 22 26.25 C25.1875 26.4375 25.1875 26.4375 28 27.25 C29.44386761 30.13773522 29.37717738 32.04792118 29 35.25 C26.875 37.77734375 26.875 37.77734375 24 40.1875 C23.49887695 40.61643555 22.99775391 41.04537109 22.48144531 41.48730469 C20.99841824 42.75427414 19.4994163 44.00246977 18 45.25 C16.57998036 46.49618965 15.1628454 47.74568253 13.75 49 C13.11835937 49.54269531 12.48671875 50.08539063 11.8359375 50.64453125 C10.5858216 51.73771771 9.36230817 52.8619128 8.1640625 54.01171875 C7.57367188 54.56472656 6.98328125 55.11773437 6.375 55.6875 C5.86710937 56.18121094 5.35921875 56.67492187 4.8359375 57.18359375 C1.98293986 58.84076046 0.24973648 58.76772763 -3 58.25 C-5.37442217 56.45592667 -7.3064949 54.78077762 -9.375 52.6875 C-10.51755795 51.58133753 -11.66078522 50.47586597 -12.8046875 49.37109375 C-13.3522168 48.83339355 -13.89974609 48.29569336 -14.46386719 47.74169922 C-16.41877515 45.84333818 -18.44319423 44.03699665 -20.5 42.25 C-21.1084375 41.71375 -21.716875 41.1775 -22.34375 40.625 C-24.16384259 39.06516593 -24.16384259 39.06516593 -27 37.25 C-29 35.25 -29 35.25 -29.5 31.625 C-29.335 30.51125 -29.17 29.3975 -29 28.25 C-26 26.25 -26 26.25 -23.765625 26.25 C-19.690118 27.72362965 -16.94072145 30.37702675 -13.75 33.25 C-13.11320312 33.80945313 -12.47640625 34.36890625 -11.8203125 34.9453125 C-7.49274554 38.75725446 -7.49274554 38.75725446 -6 40.25 C-5.98018066 39.10934082 -5.96036133 37.96868164 -5.93994141 36.79345703 C-5.86399433 32.57024677 -5.77526072 28.34738601 -5.68261719 24.12451172 C-5.64428223 22.29515471 -5.60943737 20.46572115 -5.578125 18.63623047 C-5.53257195 16.00981241 -5.47456269 13.38392341 -5.4140625 10.7578125 C-5.39673569 9.52649094 -5.39673569 9.52649094 -5.37905884 8.27029419 C-5.1742825 0.43119021 -5.1742825 0.43119021 0 0 Z " fill="#FBFEFC" transform="translate(64,34.75)"/>
</svg>
